<?xml version="1.0" encoding="UTF-8"?>
<svg id="Layer_1" data-name="Layer 1" xmlns="http://www.w3.org/2000/svg" viewBox="0 0 500 500">
  <defs>
    <style>
      .cls-1 {
        fill: #f60;
        stroke-width: 0px;
      }
    </style>
  </defs>
  <path class="cls-1" d="M0,475.7v24.3h22.2c-8.7-7.1-16.2-15.3-22.2-24.3Z"/>
  <path class="cls-1" d="M0,0v347.2c14.1-22.5,34.4-39.4,61-50.4h0c14.6-5.9,31.1-8.9,52-9.5,35.8-1,64.1-16,83.9-44.6,14.1-20.2,19.3-44.6,14.7-68.7-4.4-23.2-17.4-42.9-36.6-55.7-33-22-76.6-15.1-99.2,15.7-17.6,24-15,57.3,5.8,76,16,14.3,39,15.7,54.6,3.4,11.5-9.1,15.1-25,8.1-36.1-3.5-5.5-9.6-8.7-15.2-7.8-3,.5-5.1,1.8-5.8,3.6-.7,1.7-.1,3.9,1.7,6.2,1.7,2.2,2.3,4.9,1.8,7.6-.6,3-2.7,5.7-5.7,7.4-6.3,3.6-14.8,2.4-21.1-2.9-8.6-7.4-11.5-19.9-7.5-31.8,6.8-19.7,29.2-30.8,51.1-25.3,14.3,3.6,26.3,12.7,33.8,25.7,8.1,14,10.2,31.3,5.8,47.5-9.5,34.4-43.4,56.3-80.5,52-41.7-4.9-74-40-76.7-83.5-2.6-41.2,21-80.6,58.6-98,56.6-26.2,123.3-3.4,151.8,52,21.6,41.9,20.5,84.7-3,127.3-16.8,30.3-19,61.1-6.7,91.5,17,42,62.2,65.4,105.4,54.5,39.5-10,64.2-48.2,56.2-86.8-6.6-32.2-37-53.4-67.6-47.2-23.3,4.6-39.2,26.1-35.6,47.7,2,12,10.6,21.5,21.4,23.8,7,1.4,12.6,0,17.3-4.4,2.9-2.7,3.9-5.8,3.3-9.4-.5-2.9-2.4-4.1-5.3-3.7-5.1.8-8-.9-9.6-2.5-1.6-1.5-3.5-4.5-3-9.6.7-7,6.6-13.4,14.5-15.6,14-4,29.8,4.8,36.1,19.9,7.9,19.1-.4,42.6-19.3,54.5-25.3,16-59.2,9.3-78.8-15.6-24.1-30.5-19.2-75.5,11.1-102.4,18-15.9,41.2-23.7,65.6-22,25.3,1.8,48.4,13.5,65,33.1,18.3,21.5,27,48.9,24.6,77.3-2.5,29.6-16.7,56.6-39.9,76.1-44.3,37.1-110.1,37.3-156.6.5-16.2-12.8-27.6-29.4-36.5-43.9-26.6-43-81.2-59.1-126.9-37.4-21.3,10.1-37.5,28.8-44.5,51.1-6.9,21.9-4.6,44.7,6.5,64.1,9.4,16.6,25.4,28.6,43.9,32.9,17.3,4.1,34.8,1.1,49.1-8.4,21.4-14.3,29.5-41.4,19-63.1-7.5-15.6-24.2-24-39.5-20.2-10.1,2.5-16.2,8.5-18.2,17.7-1.2,5.9.3,10.4,4.7,13.5,1.2.9,3,1.8,4.7,1.3,1.4-.4,2.6-1.8,3.4-3.8,1.1-2.9,3.1-5,5.6-6,2.6-1,5.6-.8,8.7.6,6.3,3,9.9,10.1,9.1,18.2-1.1,11.4-10.7,21.4-23.3,24.1-18,4-37.7-6.7-45.8-25-10.9-24.7-1-54.6,23.1-69.4,15.9-9.7,34.7-12.6,53.1-8,19.3,4.8,35.5,17.1,45.7,34.6,21.1,36.2,12.4,81.5-19.5,109.7h346.1V0H0Z"/>
</svg>