<?xml version="1.0" encoding="UTF-8" standalone="no"?><!DOCTYPE svg PUBLIC "-//W3C//DTD SVG 1.1//EN" "http://www.w3.org/Graphics/SVG/1.1/DTD/svg11.dtd"><svg width="100%" height="100%" viewBox="0 0 1250 246" version="1.1" xmlns="http://www.w3.org/2000/svg" xmlns:xlink="http://www.w3.org/1999/xlink" xml:space="preserve" xmlns:serif="http://www.serif.com/" style="fill-rule:evenodd;clip-rule:evenodd;stroke-linejoin:round;stroke-miterlimit:2;"><g><path d="M76.767,147.805c-8.694,2.763 -18.06,2.763 -26.754,0c-22.722,-7.221 -35.176,-31.126 -27.793,-53.35c7.383,-22.224 31.824,-34.405 54.547,-27.184c8.694,2.763 16.271,8.147 21.644,15.381c-5.373,-7.234 -8.267,-15.945 -8.267,-24.887c-0,-23.367 19.397,-42.339 43.288,-42.339c23.892,0 43.289,18.972 43.289,42.339c-0,8.942 -2.894,17.653 -8.267,24.887c5.373,-7.234 12.95,-12.618 21.644,-15.381c22.722,-7.221 47.164,4.96 54.547,27.184c7.383,22.224 -5.071,46.129 -27.793,53.35c-8.695,2.763 -18.06,2.763 -26.754,0c8.694,2.763 16.271,8.147 21.644,15.381c14.043,18.905 9.752,45.405 -9.577,59.14c-19.328,13.735 -46.422,9.538 -60.465,-9.367c-5.374,-7.234 -8.268,-15.945 -8.268,-24.886c0,8.941 -2.894,17.652 -8.267,24.886c-14.043,18.905 -41.137,23.102 -60.466,9.367c-19.328,-13.735 -23.62,-40.235 -9.577,-59.14c5.374,-7.234 12.951,-12.618 21.645,-15.381Zm24.461,-61.362c-1.95,0.853 -3.354,2.041 -3.876,3.694c-4.286,13.566 -4.286,61.988 -0,75.554c1.983,6.277 16.685,5.844 25.712,5.844c28.382,0 51.425,-19.546 51.425,-43.621c-0,-24.075 -23.043,-43.622 -51.425,-43.622c-6.65,0 -16.381,-0.235 -21.836,2.151Z" style="fill:#030000;"/><path d="M123.051,117.424c-1.151,-1.55 -1.771,-3.416 -1.771,-5.331c-0,-5.006 4.155,-9.07 9.273,-9.07c5.118,0 9.273,4.064 9.273,9.07c0,1.915 -0.62,3.781 -1.771,5.331l-1.878,2.528l1.878,-2.528c1.151,-1.55 2.775,-2.703 4.637,-3.295c4.868,-1.547 10.103,1.063 11.685,5.823c1.581,4.761 -1.086,9.882 -5.954,11.429c-1.862,0.592 -3.869,0.592 -5.731,0l-3.039,-0.966l3.039,0.966c1.862,0.592 3.486,1.745 4.637,3.295c3.008,4.05 2.089,9.726 -2.052,12.669c-4.141,2.942 -9.945,2.043 -12.953,-2.007c-1.151,-1.549 -1.771,-3.416 -1.771,-5.331l0,-3.125l0,3.125c0,1.915 -0.62,3.782 -1.771,5.331c-3.008,4.05 -8.812,4.949 -12.953,2.007c-4.14,-2.943 -5.06,-8.619 -2.051,-12.669c1.151,-1.55 2.774,-2.703 4.636,-3.295l3.039,-0.966l-3.039,0.966c-1.862,0.592 -3.868,0.592 -5.731,0c-4.867,-1.547 -7.535,-6.668 -5.954,-11.429c1.582,-4.76 6.818,-7.37 11.685,-5.823c1.863,0.592 3.486,1.745 4.637,3.295l1.878,2.528l-1.878,-2.528Z" style="fill:#030000;"/></g><g transform="matrix(95.1153,0,0,95.1153,1198.89,156.587)"></g><text x="296.25px" y="156.587px" style="font-family:'GoodMatcha', 'Good Matcha';font-size:95.115px;">dOLAPO OK<tspan x="796.557px " y="156.587px ">U</tspan>BO<tspan x="981.842px " y="156.587px ">Y</tspan>EJO</text></svg>