<?xml version="1.0" encoding="UTF-8" standalone="no"?><!DOCTYPE svg PUBLIC "-//W3C//DTD SVG 1.1//EN" "http://www.w3.org/Graphics/SVG/1.1/DTD/svg11.dtd"><svg width="100%" height="100%" viewBox="0 0 1250 246" version="1.1" xmlns="http://www.w3.org/2000/svg" xmlns:xlink="http://www.w3.org/1999/xlink" xml:space="preserve" xmlns:serif="http://www.serif.com/" style="fill-rule:evenodd;clip-rule:evenodd;stroke-linejoin:round;stroke-miterlimit:2;"><g><path d="M76.767,147.805c-8.694,2.763 -18.06,2.763 -26.754,0c-22.722,-7.221 -35.176,-31.126 -27.793,-53.35c7.383,-22.224 31.824,-34.405 54.547,-27.184c8.694,2.763 16.271,8.147 21.644,15.381c-5.373,-7.234 -8.267,-15.945 -8.267,-24.887c-0,-23.367 19.397,-42.339 43.288,-42.339c23.892,0 43.289,18.972 43.289,42.339c-0,8.942 -2.894,17.653 -8.267,24.887c5.373,-7.234 12.95,-12.618 21.644,-15.381c22.722,-7.221 47.164,4.96 54.547,27.184c7.383,22.224 -5.071,46.129 -27.793,53.35c-8.695,2.763 -18.06,2.763 -26.754,0c8.694,2.763 16.271,8.147 21.644,15.381c14.043,18.905 9.752,45.405 -9.577,59.14c-19.328,13.735 -46.422,9.538 -60.465,-9.367c-5.374,-7.234 -8.268,-15.945 -8.268,-24.886c0,8.941 -2.894,17.652 -8.267,24.886c-14.043,18.905 -41.137,23.102 -60.466,9.367c-19.328,-13.735 -23.62,-40.235 -9.577,-59.14c5.374,-7.234 12.951,-12.618 21.645,-15.381Zm24.461,-61.362c-1.95,0.853 -3.354,2.041 -3.876,3.694c-4.286,13.566 -4.286,61.988 -0,75.554c1.983,6.277 16.685,5.844 25.712,5.844c28.382,0 51.425,-19.546 51.425,-43.621c-0,-24.075 -23.043,-43.622 -51.425,-43.622c-6.65,0 -16.381,-0.235 -21.836,2.151Z" style="fill:#030000;"/><path d="M123.051,117.424c-1.151,-1.55 -1.771,-3.416 -1.771,-5.331c-0,-5.006 4.155,-9.07 9.273,-9.07c5.118,0 9.273,4.064 9.273,9.07c0,1.915 -0.62,3.781 -1.771,5.331l-1.878,2.528l1.878,-2.528c1.151,-1.55 2.775,-2.703 4.637,-3.295c4.868,-1.547 10.103,1.063 11.685,5.823c1.581,4.761 -1.086,9.882 -5.954,11.429c-1.862,0.592 -3.869,0.592 -5.731,0l-3.039,-0.966l3.039,0.966c1.862,0.592 3.486,1.745 4.637,3.295c3.008,4.05 2.089,9.726 -2.052,12.669c-4.141,2.942 -9.945,2.043 -12.953,-2.007c-1.151,-1.549 -1.771,-3.416 -1.771,-5.331l0,-3.125l0,3.125c0,1.915 -0.62,3.782 -1.771,5.331c-3.008,4.05 -8.812,4.949 -12.953,2.007c-4.14,-2.943 -5.06,-8.619 -2.051,-12.669c1.151,-1.55 2.774,-2.703 4.636,-3.295l3.039,-0.966l-3.039,0.966c-1.862,0.592 -3.868,0.592 -5.731,0c-4.867,-1.547 -7.535,-6.668 -5.954,-11.429c1.582,-4.76 6.818,-7.37 11.685,-5.823c1.863,0.592 3.486,1.745 4.637,3.295l1.878,2.528l-1.878,-2.528Z" style="fill:#030000;"/></g><g><path d="M302.147,155.446c1.713,1.522 5.707,1.807 7.8,1.807c14.267,0 41.375,-4.851 41.375,-34.907c0,-3.044 -0.38,-5.992 -1.046,-8.941c-4.946,-22.067 -25.301,-24.635 -37.856,-24.635c-1.807,0 -4.851,0 -6.468,0.761c-0.285,0.19 -0.761,0.476 -1.141,0.571c-0.476,0.19 -1.237,0.38 -1.903,0.666c-0.665,0.285 -1.712,1.046 -1.902,2.758c-0.285,3.614 -0.285,10.368 -0.285,14.362c-0.19,9.797 -0.19,19.784 -0.19,29.676l-0,14.743c-0,1.617 0.856,2.568 1.616,3.139Zm13.507,-14.172c0.095,-12.27 0.285,-24.54 0.38,-36.81c9.131,0.381 20.26,2.854 20.26,18.072c-0,14.648 -11.699,17.787 -20.64,18.738Z" style="fill-rule:nonzero;"/><path d="M387.942,157.444c19.403,-0 30.817,-15.694 30.817,-33.766c-0,-18.453 -11.985,-35.288 -31.293,-35.288c-19.404,-0 -30.817,16.93 -30.817,34.812c-0,18.357 11.699,34.242 31.293,34.242Zm-16.36,-34.337c-0,-12.46 7.989,-18.548 15.979,-18.548c8.18,0 16.265,6.468 16.265,19.119c-0,12.745 -7.99,17.691 -16.075,17.691c-8.085,0 -16.169,-5.517 -16.169,-18.262Z" style="fill-rule:nonzero;"/><path d="M429.697,155.827c2.854,1.521 9.321,1.521 12.46,1.521c6.944,0 13.887,-0.665 20.926,-0.665c1.521,-0 2.378,-1.522 2.853,-2.949c0.381,-1.522 0.476,-3.139 0.476,-4.47c-0,-2.473 -0.286,-8.18 -3.805,-8.18l-20.45,-0c0.286,-14.838 0.381,-29.771 0.381,-44.609l-0,-3.329c-0.286,-1.332 -1.142,-2.093 -1.807,-2.378c-1.808,-1.142 -5.042,-1.142 -7.039,-1.142l-1.427,0c-2.473,0 -4.66,1.332 -4.851,3.995c-0.285,4.375 -0.19,9.131 -0.285,13.602c-0.095,9.321 -0.095,18.832 -0.095,28.249l-0,16.74c-0,1.807 1.046,2.949 2.663,3.615Z" style="fill-rule:nonzero;"/><path d="M477.16,156.683c1.997,-0 4.47,-0.381 6.182,-1.332c0.951,-0.666 1.522,-1.332 1.522,-2.568c0,-3.71 0.571,-7.514 1.237,-11.224l20.64,0c0.38,2.759 0.761,5.612 0.856,8.37l-0,1.427c-0,0.666 0.095,1.427 0.285,2.093c0.38,0.951 1.141,1.522 1.807,1.902c1.522,1.141 4.661,1.427 6.468,1.427c0.856,-0 2.283,-0.095 3.614,-0.476c1.237,-0.475 3.044,-1.617 3.044,-4.375c0,-16.265 -6.373,-50.887 -17.406,-59.352c-2.473,-1.902 -5.326,-2.663 -7.895,-2.663c-14.077,-0 -19.879,18.262 -23.588,34.146c-2.188,8.941 -3.9,18.357 -5.136,27.679l-0,0.38c-0,4.09 5.326,4.566 8.37,4.566Zm11.984,-30.818c1.522,-6.087 3.139,-12.175 5.707,-17.977c0.951,-1.807 1.712,-2.473 2.188,-2.473c2.663,0 6.658,17.787 7.229,20.45l-15.124,0Z" style="fill-rule:nonzero;"/><path d="M534.324,156.492c1.427,0.381 3.139,0.476 3.805,0.476c0.761,-0 2.568,-0.095 4.09,-0.571c0.761,-0.19 1.617,-0.57 2.282,-1.236c0.666,-0.571 1.332,-1.427 1.332,-2.949c-0,-5.041 -0,-10.177 0.095,-15.218c7.514,-0.381 18.452,-1.522 24.73,-8.561c3.424,-3.709 5.612,-9.416 5.612,-15.789c-0,-6.182 -1.998,-11.414 -5.231,-15.313c-6.563,-7.895 -17.026,-7.895 -26.443,-7.895c-2.758,0 -8.084,0 -10.367,1.046c-0.19,0 -0.476,0.095 -0.666,0.191c-0.285,0.095 -0.571,0.19 -0.856,0.38c-0.476,0.38 -1.236,1.046 -1.427,2.378c-0.19,1.236 -0.19,3.805 -0.19,6.373c-0.095,2.568 -0.095,5.231 -0.095,6.563c-0.19,10.367 -0.19,20.83 -0.19,31.197l-0,14.743c-0,2.283 1.522,3.52 3.519,4.185Zm11.794,-35.002c0.095,-5.422 0.095,-10.938 0.191,-16.36c0.475,-0.095 1.046,-0.095 1.617,-0.095c5.421,-0 13.316,0.856 13.316,7.99c-0,7.419 -9.417,8.465 -15.124,8.465Z" style="fill-rule:nonzero;"/><path d="M612.414,157.444c19.403,-0 30.817,-15.694 30.817,-33.766c0,-18.453 -11.984,-35.288 -31.293,-35.288c-19.403,-0 -30.817,16.93 -30.817,34.812c-0,18.357 11.699,34.242 31.293,34.242Zm-16.36,-34.337c-0,-12.46 7.99,-18.548 15.979,-18.548c8.18,0 16.265,6.468 16.265,19.119c-0,12.745 -7.99,17.691 -16.074,17.691c-8.085,0 -16.17,-5.517 -16.17,-18.262Z" style="fill-rule:nonzero;"/><path d="M708.766,157.444c19.403,-0 30.817,-15.694 30.817,-33.766c-0,-18.453 -11.985,-35.288 -31.293,-35.288c-19.404,-0 -30.817,16.93 -30.817,34.812c-0,18.357 11.699,34.242 31.293,34.242Zm-16.36,-34.337c-0,-12.46 7.989,-18.548 15.979,-18.548c8.18,0 16.265,6.468 16.265,19.119c-0,12.745 -7.99,17.691 -16.075,17.691c-8.084,0 -16.169,-5.517 -16.169,-18.262Z" style="fill-rule:nonzero;"/><path d="M751.377,156.492c1.427,0.381 3.139,0.476 3.805,0.476c0.761,-0 2.568,-0.095 4.09,-0.571c0.761,-0.19 1.617,-0.57 2.283,-1.236c0.665,-0.571 1.331,-1.427 1.331,-2.949c0,-4.946 0,-9.987 0.19,-14.933c2.473,-3.329 4.661,-6.848 6.754,-10.367c3.329,7.704 6.658,15.503 9.701,23.303c0.761,1.617 1.522,3.329 2.093,4.565c1.236,1.998 3.995,2.093 6.087,2.093c1.807,-0 5.707,-0.571 7.324,-1.522c0.381,-0.19 0.761,-0.476 1.046,-0.761c0.286,-0.38 0.666,-0.856 0.666,-1.807c0,-0.19 0,-0.666 -0.285,-1.237c-0.095,-0.38 -0.285,-0.665 -0.476,-1.236c-0.38,-0.951 -0.951,-2.188 -1.522,-3.424c-5.136,-11.509 -10.082,-23.113 -14.837,-34.812c3.899,-5.898 7.799,-11.7 11.794,-17.407c0.285,-0.285 0.57,-1.331 0.57,-1.617c0,-0.856 -0.38,-1.426 -0.665,-1.712c-0.286,-0.38 -0.666,-0.57 -0.951,-0.761c-1.522,-0.856 -4.756,-1.426 -6.468,-1.426c-1.807,-0 -4.946,0.285 -6.849,2.092c-0.951,0.951 -1.807,2.283 -2.758,3.615c-0.856,1.331 -1.712,2.663 -2.473,3.804c-2.853,4.471 -5.707,9.131 -8.56,13.697c-0,-4.566 0.095,-9.131 0.095,-13.697l-0,-5.421c-0.19,-1.332 -0.951,-1.998 -1.522,-2.378c-1.712,-0.856 -3.71,-1.142 -5.612,-1.142c-2.283,0 -4.375,0.191 -6.373,1.237c-0.57,0.38 -1.426,1.141 -1.521,2.663c-0.286,4.566 -0.191,9.512 -0.286,14.267c-0.19,9.797 -0.19,19.784 -0.19,29.676l-0,14.743c-0,2.283 1.522,3.52 3.519,4.185Z" style="fill-rule:nonzero;"/><path d="M801.883,136.708c0.857,8.561 3.33,14.268 9.132,17.121c4.85,2.663 11.889,3.234 16.93,3.234c7.419,0 19.118,-0.476 23.494,-12.555c0.951,-2.758 1.426,-5.802 1.426,-8.941l0,-41.946c0,-1.427 -0.57,-2.283 -1.236,-2.758c-0.571,-0.476 -1.332,-0.761 -2.093,-1.046c-1.522,-0.476 -3.043,-0.571 -3.614,-0.571c-0.951,-0 -2.378,-0 -3.805,0.38c-1.141,0.381 -2.758,1.047 -3.614,2.378c-0.381,0.856 -0.571,1.522 -0.571,2.283c-0.57,13.792 -0.38,27.774 -0.38,41.565c-0,4.185 -7.229,5.993 -10.558,5.993c-3.234,-0 -8.941,-1.332 -9.321,-5.232c-0.286,-1.236 -0.381,-2.758 -0.476,-4.47c0,-1.617 0,-3.424 -0.095,-4.851c-0.476,-10.843 -0.476,-21.781 -0.476,-32.625c0,-3.614 -4.185,-4.85 -7.133,-4.85c-2.093,-0 -5.707,0.475 -7.039,2.282c-0.38,0.571 -0.856,1.332 -0.856,2.568c0,8.561 -0.38,17.121 -0.38,25.586c-0,5.517 0.095,11.034 0.665,16.455Z" style="fill-rule:nonzero;"/><path d="M863.518,152.307c0,2.093 1.427,3.139 2.473,3.71c1.237,0.57 2.759,0.856 4.376,0.951c1.236,0.19 2.568,0.19 3.709,0.19c5.517,0 11.129,-0.095 16.645,-0.475c8.085,-0.761 23.018,-2.664 23.018,-20.831c0,-7.989 -5.136,-12.46 -12.175,-14.743c3.044,-3.043 5.327,-7.989 5.327,-13.601c-0,-17.311 -18.453,-17.977 -31.388,-17.977c-2.663,0 -6.468,0 -8.941,1.046c-0.571,0.191 -1.141,0.476 -1.522,0.856c-0.475,0.381 -0.951,1.047 -1.046,2.093c-0.095,1.332 -0.095,2.949 -0.095,4.375c-0.381,13.221 -0.381,26.442 -0.381,39.663l0,14.743Zm15.124,-11.128c-0,-3.139 0.095,-6.373 0.095,-9.607c2.473,-0.19 4.946,-0.38 7.419,-0.38c0.665,-0 1.712,-0 2.853,0.095c2.663,-0 7.039,1.236 7.039,4.47c-0,3.044 -5.232,4.471 -7.514,4.851c-3.71,0.666 -7.8,0.571 -9.892,0.571Zm0.19,-22.257c0.095,-4.851 0.19,-9.607 0.19,-14.363c0.571,-0.095 1.332,-0.095 1.997,-0.095c1.522,0 4.186,0.286 6.373,1.142c2.378,1.141 3.805,2.663 3.805,4.755c-0,3.139 -3.424,5.517 -5.802,6.944c-2.093,0.951 -4.376,1.522 -6.563,1.617Z" style="fill-rule:nonzero;"/><path d="M950.168,157.444c19.404,-0 30.818,-15.694 30.818,-33.766c-0,-18.453 -11.985,-35.288 -31.293,-35.288c-19.404,-0 -30.818,16.93 -30.818,34.812c0,18.357 11.7,34.242 31.293,34.242Zm-16.36,-34.337c0,-12.46 7.99,-18.548 15.98,-18.548c8.18,0 16.265,6.468 16.265,19.119c-0,12.745 -7.99,17.691 -16.075,17.691c-8.085,0 -16.17,-5.517 -16.17,-18.262Z" style="fill-rule:nonzero;"/><path d="M1000.87,127.102c-0,5.136 0.19,10.272 0.285,15.408c0.095,2.949 -0.095,6.183 0.19,9.131c0.095,1.237 0.381,2.093 1.142,2.949c1.141,1.522 4.185,1.997 5.992,1.997c0.476,0 2.093,-0.095 3.614,-0.475c0.761,-0.285 1.617,-0.571 2.188,-0.951c0.476,-0.476 1.332,-1.237 1.332,-2.663c-0,-4.756 0.285,-9.607 0.285,-14.458c0,-3.709 -0.19,-7.324 -0.476,-11.128c7.039,-6.468 15.124,-20.545 18.643,-29.296c0.19,-0.476 0.381,-1.141 0.381,-1.902c-0,-1.617 -0.761,-2.759 -1.522,-3.52c-1.332,-1.712 -5.802,-3.138 -7.895,-3.138c-1.427,-0 -3.995,0.475 -5.136,2.853c-1.998,3.9 -3.805,7.8 -5.707,11.509c-1.807,3.424 -3.71,6.563 -5.992,9.321c-1.808,-2.092 -3.329,-4.565 -4.756,-7.228c-1.046,-2.093 -2.188,-4.471 -3.329,-6.754c-1.142,-2.378 -2.283,-4.755 -3.519,-6.848c-0.571,-1.046 -1.522,-1.427 -2.283,-1.712c-0.761,-0.19 -1.617,-0.285 -2.283,-0.285c-0.856,-0 -3.139,0.38 -5.231,1.046c-1.047,0.475 -1.998,0.951 -2.854,1.617c-0.761,0.666 -1.617,1.617 -1.617,3.329c0,0.571 0.191,1.332 0.381,1.902c0.19,0.666 0.57,1.427 0.856,2.188c0.761,1.617 1.712,3.424 2.568,5.326c3.9,7.8 8.085,15.98 14.743,21.782Z" style="fill-rule:nonzero;"/><path d="M1040.81,155.446c0.095,0.285 0.381,1.237 1.142,1.237l34.526,-0c0.761,-0 1.237,-0.666 1.617,-1.237c0.381,-0.571 0.666,-1.332 0.952,-1.997c0.475,-1.427 0.665,-3.044 0.761,-4.09l-0,-1.237c-0,-2.378 -0.571,-7.038 -3.615,-7.038l-20.64,-0c0,-3.329 0.095,-6.658 0.095,-9.987l15.409,-0c3.234,-0 3.709,-6.088 3.709,-8.371c0,-2.282 -0.57,-7.228 -3.614,-7.228l-15.314,-0c0,-3.424 0,-6.849 0.096,-10.273c6.182,0 12.269,-0.095 18.452,-0.095c3.329,0 3.709,-5.897 3.709,-8.275c0,-2.283 -0.665,-7.324 -3.709,-7.324c-4.566,0 -9.226,-0.095 -13.792,-0.095c-1.522,0 -5.802,-0.095 -9.987,0.095c-2.663,0.095 -5.326,0.381 -7.799,1.237c-0.571,0.285 -1.237,0.665 -1.617,1.426c-0.191,0.286 -0.381,1.237 -0.381,1.427c-0.285,4.471 -0.19,9.036 -0.285,13.602c-0.095,9.321 -0.095,18.832 -0.095,28.249l-0,16.74c-0,0.286 -0,1.237 0.095,1.902c0.095,0.381 0.095,0.857 0.285,1.332Z" style="fill-rule:nonzero;"/><path d="M1084.19,133.094c-0,20.26 11.223,23.398 21.781,23.398c8.656,0 20.07,-4.09 20.07,-20.925l-0,-42.136c-0,-0.951 -0.381,-1.522 -0.666,-1.902c-0.381,-0.381 -0.761,-0.571 -1.142,-0.761c-2.282,-0.856 -4.946,-0.951 -7.323,-0.951c-0.761,-0 -1.998,-0 -3.139,0.38c-1.142,0.476 -2.568,1.427 -2.664,3.9c-0.19,4.47 -0.19,9.036 -0.285,13.506c-0.19,9.321 -0.19,18.738 -0.19,28.154c-0,1.522 -0.381,2.854 -1.046,3.71c-1.142,1.141 -3.52,1.522 -5.232,1.522c-4.185,-0 -5.231,-2.949 -5.231,-9.227c-0,-1.331 -0.666,-2.282 -1.141,-2.758c-1.332,-1.141 -3.995,-1.617 -5.707,-1.617c-0.952,0 -2.854,0.19 -4.566,0.666c-1.427,0.666 -3.519,1.997 -3.519,5.041Z" style="fill-rule:nonzero;"/><path d="M1165.13,157.444c19.404,-0 30.817,-15.694 30.817,-33.766c0,-18.453 -11.984,-35.288 -31.293,-35.288c-19.403,-0 -30.817,16.93 -30.817,34.812c0,18.357 11.699,34.242 31.293,34.242Zm-16.36,-34.337c0,-12.46 7.99,-18.548 15.98,-18.548c8.179,0 16.264,6.468 16.264,19.119c0,12.745 -7.989,17.691 -16.074,17.691c-8.085,0 -16.17,-5.517 -16.17,-18.262Z" style="fill-rule:nonzero;"/></g></svg>