<?xml version="1.0" encoding="UTF-8" standalone="no"?><!DOCTYPE svg PUBLIC "-//W3C//DTD SVG 1.1//EN" "http://www.w3.org/Graphics/SVG/1.1/DTD/svg11.dtd"><svg width="100%" height="100%" viewBox="0 0 2500 492" version="1.1" xmlns="http://www.w3.org/2000/svg" xmlns:xlink="http://www.w3.org/1999/xlink" xml:space="preserve" xmlns:serif="http://www.serif.com/" style="fill-rule:evenodd;clip-rule:evenodd;stroke-linejoin:round;stroke-miterlimit:2;"><g><path d="M604.295,310.892c3.424,3.044 11.414,3.615 15.599,3.615c28.534,-0 82.75,-9.702 82.75,-69.815c0,-6.087 -0.761,-11.985 -2.092,-17.882c-9.892,-44.133 -50.602,-49.269 -75.712,-49.269c-3.614,-0 -9.702,-0 -12.936,1.521c-0.57,0.381 -1.522,0.952 -2.283,1.142c-0.951,0.38 -2.473,0.761 -3.804,1.331c-1.332,0.571 -3.424,2.093 -3.805,5.517c-0.57,7.229 -0.57,20.735 -0.57,28.725c-0.381,19.594 -0.381,39.568 -0.381,59.352l0,29.486c0,3.234 1.712,5.136 3.234,6.277Zm27.013,-28.344c0.19,-24.54 0.57,-49.08 0.761,-73.619c18.262,0.761 40.519,5.707 40.519,36.143c-0,29.296 -23.399,35.574 -41.28,37.476Z" style="fill:#3b4229;fill-rule:nonzero;"/><path d="M775.883,314.887c38.807,0 61.635,-31.388 61.635,-67.532c-0,-36.905 -23.969,-70.575 -62.586,-70.575c-38.807,-0 -61.635,33.861 -61.635,69.624c0,36.715 23.399,68.483 62.586,68.483Zm-32.72,-68.673c0,-24.92 15.98,-37.095 31.959,-37.095c16.36,-0 32.53,12.935 32.53,38.236c-0,25.491 -15.98,35.383 -32.149,35.383c-16.17,0 -32.34,-11.033 -32.34,-36.524Z" style="fill:#3b4229;fill-rule:nonzero;"/><path d="M859.394,311.653c5.707,3.044 18.643,3.044 24.921,3.044c13.886,-0 27.773,-1.332 41.85,-1.332c3.044,0 4.756,-3.043 5.707,-5.897c0.761,-3.044 0.951,-6.278 0.951,-8.941c0,-4.946 -0.57,-16.36 -7.609,-16.36l-40.899,0c0.57,-29.676 0.76,-59.542 0.76,-89.218l0,-6.658c-0.57,-2.663 -2.282,-4.185 -3.614,-4.756c-3.614,-2.282 -10.082,-2.282 -14.077,-2.282l-2.853,-0c-4.946,-0 -9.322,2.663 -9.702,7.989c-0.571,8.751 -0.381,18.262 -0.571,27.203c-0.19,18.643 -0.19,37.666 -0.19,56.499l-0,33.48c-0,3.615 2.092,5.898 5.326,7.229Z" style="fill:#3b4229;fill-rule:nonzero;"/><path d="M954.319,313.365c3.995,0 8.941,-0.761 12.365,-2.663c1.903,-1.332 3.044,-2.663 3.044,-5.136c0,-7.419 1.142,-15.028 2.473,-22.447l41.28,-0c0.761,5.516 1.522,11.223 1.712,16.74l0,2.853c0,1.332 0.19,2.854 0.571,4.185c0.761,1.903 2.283,3.044 3.614,3.805c3.044,2.283 9.322,2.853 12.936,2.853c1.712,0 4.566,-0.19 7.229,-0.951c2.473,-0.951 6.087,-3.234 6.087,-8.75c0,-32.53 -12.745,-101.774 -34.812,-118.704c-4.946,-3.805 -10.653,-5.327 -15.789,-5.327c-28.154,0 -39.758,36.525 -47.177,68.293c-4.376,17.882 -7.8,36.715 -10.273,55.357l0,0.761c0,8.18 10.653,9.131 16.74,9.131Zm23.969,-61.635c3.044,-12.174 6.278,-24.349 11.414,-35.953c1.903,-3.614 3.424,-4.946 4.376,-4.946c5.326,-0 13.316,35.573 14.457,40.899l-30.247,0Z" style="fill:#3b4229;fill-rule:nonzero;"/><path d="M1068.65,312.985c2.854,0.761 6.278,0.951 7.609,0.951c1.522,-0 5.137,-0.19 8.18,-1.141c1.522,-0.381 3.234,-1.142 4.566,-2.473c1.331,-1.142 2.663,-2.854 2.663,-5.898c-0,-10.082 -0,-20.354 0.19,-30.437c15.028,-0.76 36.905,-3.043 49.46,-17.12c6.848,-7.419 11.224,-18.833 11.224,-31.579c-0,-12.365 -3.995,-22.827 -10.463,-30.627c-13.126,-15.789 -34.051,-15.789 -52.884,-15.789c-5.517,0 -16.17,0 -20.735,2.093c-0.381,-0 -0.951,0.19 -1.332,0.38c-0.57,0.19 -1.141,0.381 -1.712,0.761c-0.951,0.761 -2.473,2.093 -2.853,4.756c-0.381,2.473 -0.381,7.609 -0.381,12.745c-0.19,5.137 -0.19,10.463 -0.19,13.126c-0.38,20.735 -0.38,41.661 -0.38,62.396l-0,29.486c-0,4.565 3.043,7.038 7.038,8.37Zm23.589,-70.005c0.19,-10.843 0.19,-21.877 0.38,-32.72c0.951,-0.19 2.093,-0.19 3.234,-0.19c10.843,-0 26.632,1.712 26.632,15.979c0,14.838 -18.832,16.931 -30.246,16.931Z" style="fill:#3b4229;fill-rule:nonzero;"/><path d="M1224.83,314.887c38.808,0 61.635,-31.388 61.635,-67.532c0,-36.905 -23.969,-70.575 -62.586,-70.575c-38.807,-0 -61.634,33.861 -61.634,69.624c-0,36.715 23.398,68.483 62.585,68.483Zm-32.719,-68.673c-0,-24.92 15.979,-37.095 31.959,-37.095c16.359,-0 32.529,12.935 32.529,38.236c-0,25.491 -15.979,35.383 -32.149,35.383c-16.17,0 -32.339,-11.033 -32.339,-36.524Z" style="fill:#3b4229;fill-rule:nonzero;"/><path d="M1417.53,314.887c38.807,0 61.635,-31.388 61.635,-67.532c-0,-36.905 -23.969,-70.575 -62.586,-70.575c-38.807,-0 -61.635,33.861 -61.635,69.624c0,36.715 23.399,68.483 62.586,68.483Zm-32.72,-68.673c0,-24.92 15.98,-37.095 31.959,-37.095c16.36,-0 32.53,12.935 32.53,38.236c-0,25.491 -15.98,35.383 -32.149,35.383c-16.17,0 -32.34,-11.033 -32.34,-36.524Z" style="fill:#3b4229;fill-rule:nonzero;"/><path d="M1502.75,312.985c2.854,0.761 6.278,0.951 7.61,0.951c1.522,-0 5.136,-0.19 8.18,-1.141c1.521,-0.381 3.234,-1.142 4.565,-2.473c1.332,-1.142 2.663,-2.854 2.663,-5.898c0,-9.892 0,-19.974 0.381,-29.866c4.946,-6.658 9.321,-13.696 13.506,-20.735c6.658,15.409 13.316,31.008 19.404,46.607c1.522,3.233 3.043,6.658 4.185,9.131c2.473,3.994 7.99,4.185 12.175,4.185c3.614,-0 11.413,-1.142 14.647,-3.044c0.761,-0.38 1.522,-0.951 2.093,-1.522c0.571,-0.761 1.332,-1.712 1.332,-3.614c-0,-0.381 -0,-1.332 -0.571,-2.473c-0.19,-0.761 -0.571,-1.332 -0.951,-2.473c-0.761,-1.903 -1.903,-4.376 -3.044,-6.849c-10.272,-23.017 -20.164,-46.226 -29.676,-69.624c7.799,-11.794 15.599,-23.398 23.589,-34.812c0.57,-0.571 1.141,-2.663 1.141,-3.234c-0,-1.712 -0.761,-2.854 -1.332,-3.424c-0.57,-0.761 -1.331,-1.142 -1.902,-1.522c-3.044,-1.712 -9.511,-2.854 -12.936,-2.854c-3.614,0 -9.892,0.571 -13.696,4.186c-1.903,1.902 -3.615,4.565 -5.517,7.228c-1.712,2.664 -3.424,5.327 -4.946,7.61c-5.707,8.94 -11.414,18.262 -17.121,27.393c0,-9.131 0.191,-18.262 0.191,-27.393l-0,-10.844c-0.381,-2.663 -1.903,-3.994 -3.044,-4.755c-3.424,-1.712 -7.419,-2.283 -11.224,-2.283c-4.565,-0 -8.75,0.38 -12.745,2.473c-1.142,0.761 -2.854,2.283 -3.044,5.326c-0.571,9.131 -0.38,19.023 -0.571,28.535c-0.38,19.594 -0.38,39.568 -0.38,59.352l-0,29.486c-0,4.565 3.044,7.038 7.038,8.37Z" style="fill:#3b4229;fill-rule:nonzero;"/><path d="M1603.77,273.417c1.712,17.121 6.658,28.534 18.262,34.241c9.702,5.327 23.779,6.468 33.861,6.468c14.838,0 38.237,-0.951 46.987,-25.11c1.902,-5.517 2.854,-11.604 2.854,-17.882l-0,-83.892c-0,-2.853 -1.142,-4.565 -2.473,-5.516c-1.142,-0.952 -2.664,-1.522 -4.185,-2.093c-3.044,-0.951 -6.088,-1.141 -7.229,-1.141c-1.903,-0 -4.756,-0 -7.609,0.761c-2.283,0.761 -5.517,2.092 -7.229,4.755c-0.761,1.712 -1.142,3.044 -1.142,4.566c-1.141,27.583 -0.761,55.547 -0.761,83.131c0,8.37 -14.457,11.984 -21.115,11.984c-6.468,0 -17.882,-2.663 -18.643,-10.462c-0.57,-2.473 -0.761,-5.517 -0.951,-8.941c0,-3.234 0,-6.849 -0.19,-9.702c-0.951,-21.686 -0.951,-43.563 -0.951,-65.249c-0,-7.229 -8.37,-9.702 -14.268,-9.702c-4.185,0 -11.413,0.951 -14.077,4.566c-0.761,1.141 -1.712,2.663 -1.712,5.136c0,17.121 -0.761,34.241 -0.761,51.172c0,11.033 0.191,22.067 1.332,32.91Z" style="fill:#3b4229;fill-rule:nonzero;"/><path d="M1727.04,304.615c0,4.185 2.854,6.277 4.946,7.419c2.473,1.141 5.517,1.712 8.751,1.902c2.473,0.38 5.136,0.38 7.419,0.38c11.033,0 22.257,-0.19 33.29,-0.951c16.17,-1.522 46.036,-5.326 46.036,-41.66c0,-15.98 -10.272,-24.921 -24.349,-29.486c6.087,-6.087 10.653,-15.979 10.653,-27.203c-0,-34.622 -36.905,-35.954 -62.776,-35.954c-5.327,0 -12.936,0 -17.882,2.093c-1.142,0.38 -2.283,0.951 -3.044,1.712c-0.951,0.761 -1.902,2.093 -2.092,4.185c-0.191,2.663 -0.191,5.897 -0.191,8.751c-0.761,26.442 -0.761,52.884 -0.761,79.326l0,29.486Zm30.247,-22.257c0,-6.278 0.19,-12.746 0.19,-19.214c4.946,-0.38 9.892,-0.761 14.838,-0.761c1.332,0 3.425,0 5.707,0.191c5.327,-0 14.077,2.473 14.077,8.94c0,6.088 -10.462,8.941 -15.028,9.702c-7.419,1.332 -15.599,1.142 -19.784,1.142Zm0.381,-44.514c0.19,-9.702 0.38,-19.214 0.38,-28.725c1.141,-0.19 2.663,-0.19 3.995,-0.19c3.044,-0 8.37,0.57 12.745,2.282c4.756,2.283 7.61,5.327 7.61,9.512c-0,6.277 -6.849,11.033 -11.604,13.887c-4.186,1.902 -8.751,3.043 -13.126,3.234Z" style="fill:#3b4229;fill-rule:nonzero;"/><path d="M1900.34,314.887c38.807,0 61.634,-31.388 61.634,-67.532c0,-36.905 -23.969,-70.575 -62.586,-70.575c-38.807,-0 -61.634,33.861 -61.634,69.624c-0,36.715 23.398,68.483 62.586,68.483Zm-32.72,-68.673c-0,-24.92 15.979,-37.095 31.959,-37.095c16.36,-0 32.529,12.935 32.529,38.236c0,25.491 -15.979,35.383 -32.149,35.383c-16.169,0 -32.339,-11.033 -32.339,-36.524Z" style="fill:#3b4229;fill-rule:nonzero;"/><path d="M2001.73,254.203c-0,10.273 0.38,20.545 0.57,30.818c0.19,5.897 -0.19,12.365 0.381,18.262c0.19,2.473 0.761,4.185 2.282,5.897c2.283,3.044 8.371,3.995 11.985,3.995c0.951,-0 4.185,-0.19 7.229,-0.951c1.522,-0.571 3.234,-1.142 4.375,-1.902c0.951,-0.952 2.663,-2.473 2.663,-5.327c0,-9.511 0.571,-19.213 0.571,-28.915c0,-7.419 -0.38,-14.648 -0.951,-22.257c14.077,-12.936 30.247,-41.09 37.285,-58.591c0.381,-0.951 0.761,-2.283 0.761,-3.805c0,-3.234 -1.522,-5.516 -3.044,-7.038c-2.663,-3.424 -11.604,-6.278 -15.789,-6.278c-2.853,0 -7.99,0.951 -10.272,5.707c-3.995,7.8 -7.61,15.599 -11.414,23.018c-3.615,6.848 -7.419,13.126 -11.985,18.643c-3.614,-4.185 -6.658,-9.131 -9.511,-14.458c-2.093,-4.185 -4.376,-8.941 -6.658,-13.506c-2.283,-4.756 -4.566,-9.512 -7.039,-13.697c-1.141,-2.092 -3.043,-2.853 -4.565,-3.424c-1.522,-0.38 -3.234,-0.571 -4.566,-0.571c-1.712,0 -6.277,0.761 -10.463,2.093c-2.092,0.951 -3.994,1.902 -5.706,3.234c-1.522,1.331 -3.234,3.234 -3.234,6.658c-0,1.141 0.38,2.663 0.761,3.804c0.38,1.332 1.141,2.854 1.712,4.376c1.521,3.234 3.424,6.848 5.136,10.653c7.799,15.599 16.169,31.958 29.486,43.562Z" style="fill:#3b4229;fill-rule:nonzero;"/><path d="M2081.63,310.892c0.191,0.571 0.761,2.473 2.283,2.473l69.054,0c1.522,0 2.473,-1.331 3.234,-2.473c0.761,-1.141 1.332,-2.663 1.902,-3.995c0.951,-2.853 1.332,-6.087 1.522,-8.18l0,-2.473c0,-4.755 -1.141,-14.077 -7.229,-14.077l-41.28,0c0,-6.658 0.19,-13.316 0.19,-19.974l30.818,0c6.468,0 7.419,-12.175 7.419,-16.74c-0,-4.566 -1.142,-14.458 -7.229,-14.458l-30.627,0c-0,-6.848 -0,-13.696 0.19,-20.545c12.365,0 24.54,-0.19 36.905,-0.19c6.658,0 7.419,-11.794 7.419,-16.55c-0,-4.565 -1.332,-14.648 -7.419,-14.648c-9.131,0 -18.452,-0.19 -27.584,-0.19c-3.043,0 -11.604,-0.19 -19.974,0.19c-5.326,0.191 -10.653,0.761 -15.599,2.473c-1.141,0.571 -2.473,1.332 -3.234,2.854c-0.38,0.571 -0.761,2.473 -0.761,2.853c-0.57,8.941 -0.38,18.072 -0.57,27.203c-0.19,18.643 -0.19,37.666 -0.19,56.499l-0,33.48c-0,0.571 -0,2.473 0.19,3.805c0.19,0.761 0.19,1.712 0.57,2.663Z" style="fill:#3b4229;fill-rule:nonzero;"/><path d="M2168.37,266.188c-0,40.519 22.447,46.797 43.562,46.797c17.311,-0 40.139,-8.18 40.139,-41.851l0,-84.272c0,-1.902 -0.761,-3.044 -1.331,-3.805c-0.761,-0.761 -1.522,-1.141 -2.283,-1.522c-4.566,-1.712 -9.892,-1.902 -14.648,-1.902c-1.522,0 -3.995,0 -6.278,0.761c-2.282,0.951 -5.136,2.853 -5.326,7.799c-0.381,8.941 -0.381,18.072 -0.571,27.013c-0.38,18.643 -0.38,37.476 -0.38,56.308c-0,3.044 -0.761,5.707 -2.093,7.419c-2.283,2.283 -7.038,3.044 -10.462,3.044c-8.371,0 -10.463,-5.897 -10.463,-18.452c-0,-2.663 -1.332,-4.566 -2.283,-5.517c-2.663,-2.283 -7.99,-3.234 -11.414,-3.234c-1.902,0 -5.707,0.381 -9.131,1.332c-2.853,1.331 -7.038,3.995 -7.038,10.082Z" style="fill:#3b4229;fill-rule:nonzero;"/><path d="M2330.26,314.887c38.807,0 61.635,-31.388 61.635,-67.532c-0,-36.905 -23.969,-70.575 -62.586,-70.575c-38.807,-0 -61.635,33.861 -61.635,69.624c0,36.715 23.398,68.483 62.586,68.483Zm-32.72,-68.673c0,-24.92 15.98,-37.095 31.959,-37.095c16.36,-0 32.529,12.935 32.529,38.236c0,25.491 -15.979,35.383 -32.148,35.383c-16.17,0 -32.34,-11.033 -32.34,-36.524Z" style="fill:#3b4229;fill-rule:nonzero;"/></g><g><path d="M26.17,337.53c-0.73,-17.186 86.968,-53.572 125.179,-54.436c30.798,-0.696 56.784,21.842 57.993,50.297c1.209,28.456 -22.813,52.123 -53.612,52.819c-38.21,0.863 -128.829,-31.494 -129.56,-48.68Z" style="fill:#eaf2d7;"/><path d="M67,470.841c-12.998,-13.536 37.321,-114.745 70.028,-146.518c26.07,-25.326 64.708,-27.692 86.23,-5.28c21.521,22.412 17.828,61.169 -8.242,86.495c-32.707,31.773 -135.018,78.839 -148.016,65.303Z" style="fill:#a1b76c;"/><path d="M194.929,296.271c-18.098,5.751 -37.592,5.751 -55.689,-0c-47.296,-15.031 -73.219,-64.791 -57.851,-111.05c15.367,-46.26 66.243,-71.613 113.54,-56.583c18.097,5.751 33.868,16.958 45.052,32.015c-11.184,-15.057 -17.208,-33.19 -17.208,-51.801c-0,-48.64 40.375,-88.13 90.105,-88.13c49.731,0 90.106,39.49 90.106,88.13c-0,18.611 -6.024,36.744 -17.209,51.801c11.185,-15.057 26.956,-26.264 45.053,-32.015c47.297,-15.03 98.172,10.323 113.54,56.583c15.367,46.259 -10.555,96.019 -57.852,111.05c-18.097,5.751 -37.591,5.751 -55.688,-0c18.097,5.751 33.868,16.958 45.053,32.015c29.231,39.351 20.299,94.51 -19.934,123.1c-40.233,28.59 -96.629,19.853 -125.86,-19.497c-11.185,-15.057 -17.209,-33.191 -17.209,-51.802c0,18.611 -6.024,36.745 -17.208,51.802c-29.231,39.35 -85.627,48.087 -125.86,19.497c-40.233,-28.59 -49.165,-83.749 -19.934,-123.1c11.184,-15.057 26.955,-26.264 45.053,-32.015Zm50.915,-127.726c-4.059,1.775 -6.981,4.247 -8.068,7.688c-8.92,28.238 -8.92,129.029 0,157.267c4.128,13.067 34.731,12.165 53.521,12.165c59.077,0 107.041,-40.685 107.041,-90.798c-0,-50.114 -47.964,-90.799 -107.041,-90.799c-13.843,-0 -34.097,-0.489 -45.453,4.477Z" style="fill:#f283b6;"/><path d="M194.929,296.271c-18.098,5.751 -37.592,5.751 -55.689,-0c-47.296,-15.031 -73.219,-64.791 -57.851,-111.05c15.367,-46.26 66.243,-71.613 113.54,-56.583c18.097,5.751 33.868,16.958 45.052,32.015c-11.184,-15.057 -17.208,-33.19 -17.208,-51.801c-0,-48.64 40.375,-88.13 90.105,-88.13c49.731,0 90.106,39.49 90.106,88.13c-0,18.611 -6.024,36.744 -17.209,51.801l-22.483,27.045c-19.018,-14.678 -44.284,-23.63 -71.995,-23.63c-13.843,-0 -34.097,-0.489 -45.453,4.477c-4.059,1.775 -6.981,4.247 -8.068,7.688c-8.92,28.238 -8.92,129.029 0,157.267c4.128,13.067 34.731,12.165 53.521,12.165c45.548,0 84.49,-24.185 99.937,-58.229c3.582,0.904 34.619,5.749 47.806,11.361c18.129,7.716 26.162,15.113 36.841,29.489c29.231,39.351 20.299,94.51 -19.934,123.1c-40.233,28.59 -96.629,19.853 -125.86,-19.497c-11.185,-15.057 -17.209,-33.191 -17.209,-51.802c0,18.611 -6.024,36.745 -17.208,51.802c-29.231,39.35 -85.627,48.087 -125.86,19.497c-40.233,-28.59 -49.165,-83.749 -19.934,-123.1c11.184,-15.057 26.955,-26.264 45.053,-32.015Z" style="fill:url(#_Linear1);"/><path d="M291.269,233.032c-2.395,-3.226 -3.686,-7.11 -3.686,-11.097c0,-10.42 8.649,-18.879 19.302,-18.879c10.654,-0 19.303,8.459 19.303,18.879c-0,3.987 -1.291,7.871 -3.687,11.097l-3.909,5.263l3.909,-5.263c2.396,-3.226 5.775,-5.626 9.651,-6.858c10.132,-3.22 21.031,2.211 24.323,12.121c3.292,9.909 -2.261,20.569 -12.393,23.789c-3.877,1.232 -8.053,1.232 -11.93,-0l-6.325,-2.011l6.325,2.011c3.877,1.232 7.256,3.632 9.652,6.858c6.261,8.43 4.348,20.246 -4.271,26.37c-8.618,6.125 -20.699,4.253 -26.961,-4.177c-2.396,-3.225 -3.687,-7.109 -3.687,-11.096l0,-6.506l0,6.506c0,3.987 -1.29,7.871 -3.686,11.096c-6.262,8.43 -18.343,10.302 -26.962,4.177c-8.618,-6.124 -10.532,-17.94 -4.27,-26.37c2.396,-3.226 5.775,-5.626 9.651,-6.858l6.326,-2.011l-6.326,2.011c-3.876,1.232 -8.052,1.232 -11.929,-0c-10.132,-3.22 -15.685,-13.88 -12.393,-23.789c3.292,-9.91 14.19,-15.341 24.322,-12.121c3.877,1.232 7.256,3.632 9.651,6.858l3.91,5.263l-3.91,-5.263Z" style="fill:#f283b6;"/></g><defs><linearGradient id="_Linear1" x1="0" y1="0" x2="1" y2="0" gradientUnits="userSpaceOnUse" gradientTransform="matrix(416.119,0,0,447.485,76.9612,244.465)"><stop offset="0" style="stop-color:#f283b6;stop-opacity:1"/><stop offset="1" style="stop-color:#ffd5e9;stop-opacity:1"/></linearGradient></defs></svg>