<?xml version="1.0" encoding="UTF-8" standalone="no"?><!DOCTYPE svg PUBLIC "-//W3C//DTD SVG 1.1//EN" "http://www.w3.org/Graphics/SVG/1.1/DTD/svg11.dtd"><svg width="100%" height="100%" viewBox="0 0 4167 4500" version="1.1" xmlns="http://www.w3.org/2000/svg" xmlns:xlink="http://www.w3.org/1999/xlink" xml:space="preserve" xmlns:serif="http://www.serif.com/" style="fill-rule:evenodd;clip-rule:evenodd;stroke-linejoin:round;stroke-miterlimit:2;"><g><path d="M140.515,2923.27c-5.429,-127.776 646.598,-398.306 930.692,-404.726c228.982,-5.174 422.184,162.389 431.174,373.953c8.99,211.565 -169.616,387.529 -398.598,392.703c-284.094,6.419 -957.838,-234.154 -963.268,-361.93Z" style="fill:#eaf2d7;"/><path d="M444.08,3914.43c-96.639,-100.638 277.479,-853.118 520.649,-1089.35c193.829,-188.298 481.101,-205.889 641.111,-39.259c160.01,166.63 132.554,454.786 -61.275,643.084c-243.17,236.231 -1003.85,586.161 -1100.49,485.524Z" style="fill:#a1b76c;"/><path d="M1395.22,2616.51c-134.551,42.76 -279.488,42.76 -414.038,0c-351.646,-111.751 -544.377,-481.711 -430.12,-825.646c114.257,-343.935 492.511,-532.439 844.158,-420.687c134.55,42.759 251.807,126.082 334.963,238.028c-83.156,-111.946 -127.944,-246.766 -127.944,-385.138c-0,-361.635 300.184,-655.237 669.927,-655.237c369.743,0 669.927,293.602 669.927,655.237c-0,138.372 -44.788,273.192 -127.945,385.138c83.157,-111.946 200.413,-195.269 334.964,-238.028c351.646,-111.752 729.9,76.752 844.157,420.687c114.257,343.935 -78.473,713.895 -430.119,825.646c-134.551,42.76 -279.488,42.76 -414.038,0c134.55,42.76 251.807,126.083 334.963,238.029c217.33,292.569 150.92,702.672 -148.209,915.235c-299.128,212.564 -718.426,147.61 -935.756,-144.959c-83.156,-111.945 -127.944,-246.766 -127.944,-385.138c-0,138.372 -44.788,273.193 -127.945,385.138c-217.329,292.569 -636.627,357.523 -935.756,144.959c-299.128,-212.563 -365.538,-622.666 -148.209,-915.235c83.157,-111.946 200.413,-195.269 334.964,-238.029Zm378.551,-949.627c-30.177,13.197 -51.903,31.576 -59.983,57.154c-66.32,209.953 -66.32,959.32 0,1169.27c30.687,97.145 258.221,90.444 397.92,90.444c439.235,-0 795.839,-302.493 795.839,-675.08c-0,-372.586 -356.604,-675.079 -795.839,-675.079c-102.917,-0 -253.504,-3.637 -337.937,33.289Z" style="fill:#f283b6;"/><path d="M1395.22,2616.51c-134.551,42.76 -279.488,42.76 -414.038,0c-351.646,-111.751 -544.377,-481.711 -430.12,-825.646c114.257,-343.935 492.511,-532.439 844.158,-420.687c134.55,42.759 251.807,126.082 334.963,238.028c-83.156,-111.946 -127.944,-246.766 -127.944,-385.138c-0,-361.635 300.184,-655.237 669.927,-655.237c369.743,0 669.927,293.602 669.927,655.237c-0,138.372 -44.788,273.192 -127.945,385.138l-167.162,201.074c-141.394,-109.128 -329.245,-175.685 -535.278,-175.685c-102.917,-0 -253.504,-3.637 -337.937,33.289c-30.177,13.197 -51.903,31.576 -59.983,57.154c-66.32,209.953 -66.32,959.32 0,1169.27c30.687,97.145 258.221,90.444 397.92,90.444c338.649,-0 628.178,-179.813 743.025,-432.927c26.629,6.722 257.392,42.741 355.436,84.469c134.782,57.364 194.513,112.364 273.906,219.244c217.33,292.569 150.92,702.672 -148.209,915.235c-299.128,212.564 -718.426,147.61 -935.756,-144.959c-83.156,-111.945 -127.944,-246.766 -127.944,-385.138c-0,138.372 -44.788,273.193 -127.945,385.138c-217.329,292.569 -636.627,357.523 -935.756,144.959c-299.128,-212.563 -365.538,-622.666 -148.209,-915.235c83.157,-111.946 200.413,-195.269 334.964,-238.029Z" style="fill:url(#_Linear1);"/><path d="M2111.5,2146.34c-17.814,-23.981 -27.408,-52.862 -27.408,-82.504c-0,-77.469 64.305,-140.364 143.511,-140.364c79.205,-0 143.511,62.895 143.511,140.364c-0,29.642 -9.595,58.523 -27.409,82.504l-29.066,39.129l29.066,-39.129c17.814,-23.981 42.933,-41.831 71.756,-50.991c75.329,-23.939 156.358,16.442 180.834,90.12c24.476,73.677 -16.81,152.929 -92.139,176.868c-28.824,9.16 -59.872,9.16 -88.695,0l-47.03,-14.945l47.03,14.945c28.823,9.16 53.942,27.01 71.755,50.991c46.556,62.673 32.33,150.525 -31.749,196.06c-64.079,45.535 -153.9,31.621 -200.456,-31.053c-17.814,-23.98 -27.408,-52.862 -27.408,-82.504l-0,-48.366l-0,48.366c-0,29.642 -9.595,58.524 -27.409,82.504c-46.556,62.674 -136.377,76.588 -200.456,31.053c-64.079,-45.535 -78.305,-133.387 -31.749,-196.06c17.814,-23.981 42.932,-41.831 71.755,-50.991l47.031,-14.945l-47.031,14.945c-28.823,9.16 -59.871,9.16 -88.694,0c-75.33,-23.939 -116.616,-103.191 -92.14,-176.868c24.476,-73.678 105.505,-114.059 180.834,-90.12c28.824,9.16 53.942,27.01 71.756,50.991l29.066,39.129l-29.066,-39.129Z" style="fill:#f283b6;"/></g><defs><linearGradient id="_Linear1" x1="0" y1="0" x2="1" y2="0" gradientUnits="userSpaceOnUse" gradientTransform="matrix(3093.8,0,0,3327.01,518.141,2231.34)"><stop offset="0" style="stop-color:#f283b6;stop-opacity:1"/><stop offset="1" style="stop-color:#ffd5e9;stop-opacity:1"/></linearGradient></defs></svg>